<svg version="1.1" preserveAspectRatio="none" xmlns="http://www.w3.org/2000/svg" width="500" height="500" viewBox="0 0 500 500"><rect width="100%" height="100%" fill="#F5E7E0" fill-opacity="1"/><svg viewBox="53.8678 111.5914 373.515 235.936" width="333" height="210.3441307578009" x="83.5px" y="144.8279px" xmlns="http://www.w3.org/2000/svg" xmlns:xlink="http://www.w3.org/1999/xlink" preserveAspectRatio="none"><defs></defs><style>.companyName {fill:#C66358;fill-opacity:1;}.icon1 {fill:#C66358;fill-opacity:1;}.icon2 {fill:#E3BBA7;fill-opacity:1;}.icon3 {fill:#985A55;fill-opacity:1;}.icon3-str {stroke:#985A55;stroke-opacity:1;}</style><g opacity="1" transform="rotate(0 165.9223 111.5914)">
<svg width="149.406" height="145.936" x="165.9223" y="111.5914" version="1.1" preserveAspectRatio="none" viewBox="20 21.859081268310547 160 156.28392028808594">
  <g transform="matrix(1 0 0 1 0 0)"><g><path d="M81.597 178.143C47.633 178.143 20 150.509 20 116.545V72.069a2.828 2.828 0 0 1 2.828-2.828h117.538a2.83 2.83 0 0 1 2.828 2.828v44.476c.001 33.964-27.633 61.598-61.597 61.598zM25.657 74.897v41.648c0 30.847 25.094 55.941 55.941 55.941s55.941-25.094 55.941-55.941V74.897H25.657z" data-color="1" class="icon1"></path><path d="M153.669 121.905h-13.453a2.83 2.83 0 0 1 0-5.656h13.453c11.4 0 20.675-9.275 20.675-20.677 0-11.4-9.275-20.675-20.675-20.675H140.83a2.828 2.828 0 0 1 0-5.656h12.838C168.188 69.24 180 81.053 180 95.572c0 14.521-11.812 26.333-26.331 26.333z" data-color="1" class="icon1"></path><path d="M106.715 57.144a2.829 2.829 0 0 1-2.724-3.598l8.373-29.627a2.827 2.827 0 0 1 3.491-1.952 2.828 2.828 0 0 1 1.952 3.491l-8.373 29.627a2.827 2.827 0 0 1-2.719 2.059z" data-color="1" class="icon1"></path><path d="M83.087 57.144a2.829 2.829 0 0 1-2.724-3.598l8.375-29.627a2.825 2.825 0 0 1 3.491-1.952 2.829 2.829 0 0 1 1.952 3.491l-8.375 29.627a2.827 2.827 0 0 1-2.719 2.059z" data-color="1" class="icon1"></path><path d="M59.461 57.144a2.828 2.828 0 0 1-2.724-3.598l8.373-29.627a2.823 2.823 0 0 1 3.491-1.952 2.829 2.829 0 0 1 1.952 3.491L62.18 55.086a2.829 2.829 0 0 1-2.719 2.058z" data-color="1" class="icon1"></path><path d="M87.273 99.704H24.67a2.828 2.828 0 0 1 0-5.656h62.603a2.83 2.83 0 0 1 0 5.656z" data-color="1" class="icon1"></path><path d="M117.661 99.704h-12.75a2.828 2.828 0 0 1 0-5.656h12.75a2.83 2.83 0 0 1 0 5.656z" data-color="1" class="icon1"></path></g></g>
</svg>
</g><g opacity="1" transform="rotate(0 53.8678 297.5274)">
<svg width="373.515" height="50" x="53.8678" y="297.5274" version="1.1" preserveAspectRatio="none" viewBox="1 -27.2275 207.88 27.827499999999997">
  <g transform="matrix(1 0 0 1 0 0)" class="companyName"><path id="id-D6z1nYkh10" d="M21-22.40L21-13.48L20.20-13.48Q20.20-16.68 18.16-19.40Q16.12-22.12 12.32-22.12L12.32-22.12Q10.20-22.12 8.82-19.64Q7.44-17.16 7.44-11.16Q7.44-5.16 8.82-2.68Q10.20-0.20 13.14-0.20Q16.08-0.20 18.10-2.04Q20.12-3.88 20.60-7.24L20.60-7.24L21.40-7.24Q20.84-3.28 18.62-1.34Q16.40 0.60 13.32 0.60L13.32 0.60Q7.36 0.60 4.18-2.26Q1-5.12 1-11.22Q1-17.32 4.10-20.12Q7.20-22.92 12.32-22.92L12.32-22.92Q15.08-22.92 17.68-21.44L17.68-21.44Q18.52-20.92 19.06-20.92Q19.60-20.92 19.92-21.42Q20.24-21.92 20.24-22.40L20.24-22.40L21-22.40Z M30.60-2.42Q31.48-0.40 33.64-0.40Q35.80-0.40 36.72-2.44Q37.64-4.48 37.64-9.18Q37.64-13.88 36.72-15.94Q35.80-18 33.64-18Q31.48-18 30.60-15.94Q29.72-13.88 29.72-9.16Q29.72-4.44 30.60-2.42ZM33.56 0.40Q29.76 0.40 26.68-2.08Q23.60-4.56 23.60-9.12L23.60-9.12Q23.60-11.56 24.50-13.48Q25.40-15.40 26.90-16.52Q28.40-17.64 30.12-18.22Q31.84-18.80 33.64-18.80Q35.44-18.80 37.18-18.22Q38.92-17.64 40.42-16.52Q41.92-15.40 42.84-13.48Q43.76-11.56 43.76-9.16Q43.76-6.76 42.84-4.88Q41.92-3 40.40-1.88L40.40-1.88Q37.36 0.40 33.56 0.40Z M56.56-0.80L56.56 0L46.56 0L46.56-0.80L48.56-0.80L48.56-17.60L46.16-17.60L46.16-18.40L48.56-18.40Q48.56-23.68 53.32-26.08L53.32-26.08Q55.40-27.12 58.52-27.22Q61.64-27.32 64.20-26.08L64.20-26.08Q65.96-27.20 68.82-27.20Q71.68-27.20 73.16-26.02Q74.64-24.84 74.64-23.28L74.64-23.28Q74.64-22.32 74.02-21.78Q73.40-21.24 72.56-21.24L72.56-21.24Q70.40-21.24 70.40-23.82Q70.40-26.40 68.88-26.40L68.88-26.40Q67.76-26.40 67.36-24.46Q66.96-22.52 66.96-18.40L66.96-18.40L72.16-18.40L72.16-17.60L66.96-17.60L66.96-0.80L68.96-0.80L68.96 0L58.96 0L58.96-0.80L60.96-0.80L60.96-17.60L54.56-17.60L54.56-0.80L56.56-0.80ZM54.56-18.40L60.96-18.40Q60.96-20.60 61.54-22.54Q62.12-24.48 60.76-25.52Q59.40-26.56 57.54-26.14Q55.68-25.72 55.12-24.10Q54.56-22.48 54.56-18.40L54.56-18.40Z M94.32-8L94.32-8L82.24-8Q82.64-0.96 87.72-0.96L87.72-0.96Q89.08-0.96 90.82-1.60Q92.56-2.24 93.36-3.40L93.36-3.40L93.92-3Q93.04-1.52 90.92-0.56Q88.80 0.40 86.70 0.40Q84.60 0.40 82.92-0.02Q81.24-0.44 79.64-1.44Q78.04-2.44 77.14-4.44Q76.24-6.44 76.24-9.28L76.24-9.28Q76.24-14.12 78.92-16.46Q81.60-18.80 85.42-18.80Q89.24-18.80 91.78-16.24Q94.32-13.68 94.32-8ZM82.20-9.24L82.20-8.80L88.72-8.80Q88.72-12.48 87.94-15.24Q87.16-18 85.44-18Q83.72-18 82.96-15.34Q82.20-12.68 82.20-9.24L82.20-9.24Z M114.92-8L114.92-8L102.84-8Q103.24-0.96 108.32-0.96L108.32-0.96Q109.68-0.96 111.42-1.60Q113.16-2.24 113.96-3.40L113.96-3.40L114.52-3Q113.64-1.52 111.52-0.56Q109.40 0.40 107.30 0.40Q105.20 0.40 103.52-0.02Q101.84-0.44 100.24-1.44Q98.64-2.44 97.74-4.44Q96.84-6.44 96.84-9.28L96.84-9.28Q96.84-14.12 99.52-16.46Q102.20-18.80 106.02-18.80Q109.84-18.80 112.38-16.24Q114.92-13.68 114.92-8ZM102.80-9.24L102.80-8.80L109.32-8.80Q109.32-12.48 108.54-15.24Q107.76-18 106.04-18Q104.32-18 103.56-15.34Q102.80-12.68 102.80-9.24L102.80-9.24Z M145.84-22.40L145.84-13.48L145.04-13.48Q145.04-16.68 143-19.40Q140.96-22.12 137.16-22.12L137.16-22.12Q135.04-22.12 133.66-19.64Q132.28-17.16 132.28-11.16Q132.28-5.16 133.66-2.68Q135.04-0.20 137.98-0.20Q140.92-0.20 142.94-2.04Q144.96-3.88 145.44-7.24L145.44-7.24L146.24-7.24Q145.68-3.28 143.46-1.34Q141.24 0.60 138.16 0.60L138.16 0.60Q132.20 0.60 129.02-2.26Q125.84-5.12 125.84-11.22Q125.84-17.32 128.94-20.12Q132.04-22.92 137.16-22.92L137.16-22.92Q139.92-22.92 142.52-21.44L142.52-21.44Q143.36-20.92 143.90-20.92Q144.44-20.92 144.76-21.42Q145.08-21.92 145.08-22.40L145.08-22.40L145.84-22.40Z M169.84-11.12L169.84-0.80L171.84-0.80L171.84 0L161.84 0L161.84-0.80L163.84-0.80L163.84-12Q163.84-14.84 163-16.04Q162.16-17.24 160.48-17.24L160.48-17.24Q158.20-17.24 156.84-14.84L156.84-14.84L156.84-0.80L158.84-0.80L158.84 0L148.84 0L148.84-0.80L150.84-0.80L150.84-26L148.84-26L148.84-26.80L156.84-26.80L156.84-16.32Q157.60-17.40 159.20-18.12Q160.80-18.84 162.72-18.84L162.72-18.84Q169.84-18.84 169.84-11.12L169.84-11.12Z M194.04-0.80Q193.64-0.40 192.52-0.10Q191.40 0.20 189.92 0.20L189.92 0.20Q186.64 0.20 185.80-1.76L185.80-1.76Q183.80 0.32 179.68 0.32L179.68 0.32Q177.48 0.32 176.06-0.70Q174.64-1.72 174.64-3.72L174.64-3.72Q174.64-6.40 176.72-7.86Q178.80-9.32 184.00-9.92L184.00-9.92L185.60-10.12L185.60-12.08Q185.60-15.56 185.08-16.76Q184.56-17.96 183.02-17.96Q181.48-17.96 181.04-17.54Q180.60-17.12 180.72-16.58Q180.84-16.04 181.12-15.16Q181.40-14.28 181.40-13.76L181.40-13.76Q181.40-12.52 180.54-11.66Q179.68-10.80 178.46-10.80Q177.24-10.80 176.36-11.66Q175.48-12.52 175.48-13.76L175.48-13.76Q175.48-15.80 177.58-17.26Q179.68-18.72 183.86-18.72Q188.04-18.72 189.82-17.08Q191.60-15.44 191.60-11.28L191.60-11.28L191.60-4.08Q191.60-1.96 192.12-1.42Q192.64-0.88 194.04-1.20L194.04-1.20L194.04-0.80ZM180.20-4.52Q180.40-3 181.32-2.18Q182.24-1.36 183.46-1.36Q184.68-1.36 185.60-2.56L185.60-2.56L185.60-9.36L184.16-9.16Q182.32-8.92 181.18-7.76Q180.04-6.60 180.20-4.52L180.20-4.52Z M208.44-17.60L203.80-17.60L203.80-7.84Q203.80-4.40 204.08-3.66Q204.36-2.92 204.68-2.40L204.68-2.40Q205.28-1.36 206.78-1.36Q208.28-1.36 208.88-1.76L208.88-1.76L208.88-0.96Q206.96 0.40 204.68 0.40L204.68 0.40Q201.32 0.40 199.56-1.20Q197.80-2.80 197.80-6.92L197.80-6.92L197.80-17.60L194.84-17.60L194.84-18.40L197.80-18.40Q199.72-18.72 201.20-20.26Q202.68-21.80 203.24-24.52L203.24-24.52L203.80-24.52L203.80-18.40L208.44-18.40L208.44-17.60Z"/></g>
</svg>
</g></svg></svg>
